<?xml version="1.0" encoding="UTF-8"?>
<svg id="Layer_1" xmlns="http://www.w3.org/2000/svg" version="1.1" viewBox="0 0 22.4 22.4">
  <!-- Generator: Adobe Illustrator 29.1.0, SVG Export Plug-In . SVG Version: 2.1.0 Build 142)  -->
  <defs>
    <style>
      .st0 {
        fill: #fff;
      }

      .st1 {
        fill-rule: evenodd;
      }
    </style>
  </defs>
  <g id="facebook-2020-2-1">
    <path id="Path_361" class="st1" d="M11.2,0C17.4,0,22.4,5,22.4,11.2c0,6.2-5,11.2-11.2,11.2C5,22.4,0,17.4,0,11.2S5,0,11.2,0h0Z"/>
    <path id="Path_362" class="st0" d="M12.7,22.3v-8.7h2.4l.3-3.1h-2.8v-1.5c0-.8,0-1.2,1.2-1.2h1.5v-3.1h-2.4c-2.9,0-4,1.5-4,4v1.8h-1.8v3.1h1.8v8.5c1.2.2,2.4.3,3.7.1h0Z"/>
  </g>
</svg>